# xmcd CD database file
#
# Track frame offsets:
#	150
#	18892
#	31602
#	45522
#	60292
#
# Disc length: 957 seconds
#
# Revision: 0
# Processed by: cddbd v1.5.1PL2 Copyright (c) Steve Scherf et al.
# Submitted via: CDex 1.51
#
DISCID=2803bb05
DTITLE=Catherine Britt - Demos 2005-10
DYEAR=2005
DGENRE=Country
TTITLE0=Muddy Water
TTITLE1=Hillbilly Girl
TTITLE2=Don't Do It To Me
TTITLE3=Come On Home
TTITLE4=Back Into Your Arms
EXTD=YEAR: 2005
EXTT0=
EXTT1=
EXTT2=
EXTT3=
EXTT4=
PLAYORDER=
